<?xml version="1.0" encoding="UTF-8"?>
<svg id="Layer_2" data-name="Layer 2" xmlns="http://www.w3.org/2000/svg" viewBox="0 0 653.48 113.76">
  <defs>
    <style>
      .cls-1 {
        fill: #f1f1f1;
      }
    </style>
  </defs>
  <g id="Layer_1-2" data-name="Layer 1">
    <g>
      <path class="cls-1" d="M69.28,8h15.52v104h-16.64L15.36,29.76v82.24H0V8h19.68l49.6,78.72V8Z"/>
      <path class="cls-1" d="M167.8,88.32c0,10.24.91,18.14,2.72,23.68h-15.84c-1.07-4.05-1.76-8.69-2.08-13.92-2.77,4.8-6.56,8.61-11.36,11.44-4.8,2.83-10.19,4.24-16.16,4.24-5.23,0-9.81-1.04-13.76-3.12-3.95-2.08-7.07-4.93-9.36-8.56-2.29-3.62-3.44-7.84-3.44-12.64,0-6.72,2.05-12.02,6.16-15.92,4.1-3.89,9.89-6.1,17.36-6.64l21.76-1.28c3.09-.21,5.31-.91,6.64-2.08,1.33-1.17,2-2.93,2-5.28v-.32c0-4.37-1.76-8.05-5.28-11.04-3.52-2.98-7.79-4.48-12.8-4.48-11.52,0-17.87,5.02-19.04,15.04h-16.16c.64-8.32,4.13-14.96,10.48-19.92,6.34-4.96,14.58-7.44,24.72-7.44,6.5,0,12.27,1.25,17.28,3.76,5.01,2.51,8.96,5.98,11.84,10.4,2.88,4.43,4.32,9.52,4.32,15.28v28.8ZM114.36,88.32c0,3.84,1.44,6.86,4.32,9.04,2.88,2.19,6.72,3.28,11.52,3.28,4.26,0,8.05-.96,11.36-2.88,3.3-1.92,5.94-4.56,7.92-7.92,1.97-3.36,2.96-7.17,2.96-11.44v-2.56l-24.8,1.44c-8.85.64-13.28,4.32-13.28,11.04Z"/>
      <path class="cls-1" d="M233.56,32h19.52l-32.96,38.56,34.72,41.44h-18.72l-27.2-32.16-9.12,10.72v21.44h-15.36V0h15.36v73.28l33.76-41.28Z"/>
      <path class="cls-1" d="M256.12,71.68c0-8.43,1.6-15.76,4.8-22,3.2-6.24,7.71-11.09,13.52-14.56,5.81-3.47,12.56-5.2,20.24-5.2s14.42,1.73,20.24,5.2c5.81,3.47,10.32,8.32,13.52,14.56,3.2,6.24,4.8,13.57,4.8,22s-1.6,15.79-4.8,22.08c-3.2,6.29-7.71,11.2-13.52,14.72-5.82,3.52-12.56,5.28-20.24,5.28s-14.43-1.76-20.24-5.28c-5.81-3.52-10.32-8.42-13.52-14.72-3.2-6.29-4.8-13.65-4.8-22.08ZM317.24,71.68c0-8.85-1.97-15.73-5.92-20.64-3.95-4.91-9.49-7.36-16.64-7.36s-12.7,2.45-16.64,7.36c-3.95,4.91-5.92,11.79-5.92,20.64s1.97,15.92,5.92,20.88c3.94,4.96,9.49,7.44,16.64,7.44s12.69-2.48,16.64-7.44c3.95-4.96,5.92-11.92,5.92-20.88Z"/>
      <path class="cls-1" d="M337.6,32h16.48l22.72,64.16,22.08-64.16h16.64l-30.08,80h-17.76l-30.08-80Z"/>
      <path class="cls-1" d="M462.36,79.36l-13.6-1.6c-8.54-1.28-14.99-3.73-19.36-7.36-4.38-3.62-6.56-8.96-6.56-16,0-7.46,2.9-13.38,8.72-17.76,5.81-4.37,13.79-6.56,23.92-6.56s17.57,2.29,23.6,6.88c6.03,4.59,9.47,10.88,10.32,18.88h-15.2c-1.71-9.17-7.95-13.76-18.72-13.76-5.23,0-9.39,1.04-12.48,3.12-3.09,2.08-4.64,4.83-4.64,8.24s1.09,5.87,3.28,7.36c2.18,1.5,5.46,2.56,9.84,3.2l14.08,1.6c8.85,1.07,15.36,3.6,19.52,7.6,4.16,4,6.24,9.73,6.24,17.2,0,7.04-2.93,12.67-8.8,16.88-5.87,4.22-13.66,6.32-23.36,6.32-10.88,0-19.55-2.29-26-6.88-6.46-4.58-10.16-10.77-11.12-18.56h16.16c1.6,9.07,8.53,13.6,20.8,13.6,5.23,0,9.41-.99,12.56-2.96,3.14-1.97,4.72-4.61,4.72-7.92,0-6.61-4.64-10.45-13.92-11.52Z"/>
      <path class="cls-1" d="M555.32,32h19.52l-32.96,38.56,34.72,41.44h-18.72l-27.2-32.16-9.12,10.72v21.44h-15.36V0h15.36v73.28l33.76-41.28Z"/>
      <path class="cls-1" d="M650.76,88.32c0,10.24.91,18.14,2.72,23.68h-15.84c-1.07-4.05-1.76-8.69-2.08-13.92-2.77,4.8-6.56,8.61-11.36,11.44s-10.19,4.24-16.16,4.24c-5.23,0-9.82-1.04-13.76-3.12-3.95-2.08-7.07-4.93-9.36-8.56-2.29-3.62-3.44-7.84-3.44-12.64,0-6.72,2.05-12.02,6.16-15.92,4.11-3.89,9.89-6.1,17.36-6.64l21.76-1.28c3.09-.21,5.3-.91,6.64-2.08,1.33-1.17,2-2.93,2-5.28v-.32c0-4.37-1.76-8.05-5.28-11.04-3.52-2.98-7.79-4.48-12.8-4.48-11.52,0-17.87,5.02-19.04,15.04h-16.16c.64-8.32,4.13-14.96,10.48-19.92,6.35-4.96,14.58-7.44,24.72-7.44,6.5,0,12.26,1.25,17.28,3.76,5.01,2.51,8.96,5.98,11.84,10.4,2.88,4.43,4.32,9.52,4.32,15.28v28.8ZM597.32,88.32c0,3.84,1.44,6.86,4.32,9.04,2.88,2.19,6.72,3.28,11.52,3.28,4.26,0,8.05-.96,11.36-2.88,3.31-1.92,5.95-4.56,7.92-7.92,1.97-3.36,2.96-7.17,2.96-11.44v-2.56l-24.8,1.44c-8.85.64-13.28,4.32-13.28,11.04Z"/>
      <rect class="cls-1" x="287.68" y="64.84" width="14" height="14"/>
    </g>
  </g>
</svg>