<?xml version="1.0" encoding="UTF-8"?>
<svg id="Layer_2" data-name="Layer 2" xmlns="http://www.w3.org/2000/svg" viewBox="0 0 418.12 105.76">
  <defs>
    <style>
      .cls-1 {
        fill: #f1f1f1;
      }
    </style>
  </defs>
  <g id="Layer_1-2" data-name="Layer 1">
    <g>
      <path class="cls-1" d="M48.8,0c8.53,0,15.46,2.43,20.8,7.28,5.33,4.85,8,11.23,8,19.12,0,5.44-1.28,10.22-3.84,14.32-2.56,4.11-6.03,7.17-10.4,9.2,5.86,2.03,10.5,5.39,13.92,10.08,3.41,4.69,5.12,10.24,5.12,16.64,0,8.21-2.67,14.83-8,19.84-5.34,5.02-12.27,7.52-20.8,7.52H0V0h48.8ZM46.88,13.6H15.36v30.56h31.52c4.58,0,8.18-1.41,10.8-4.24,2.61-2.82,3.92-6.69,3.92-11.6,0-4.58-1.31-8.19-3.92-10.8-2.62-2.61-6.21-3.92-10.8-3.92ZM48.16,57.76H15.36v32.64h34.72c5.01,0,8.98-1.38,11.92-4.16,2.93-2.77,4.4-6.56,4.4-11.36,0-5.33-1.63-9.52-4.88-12.56-3.25-3.04-7.71-4.56-13.36-4.56Z"/>
      <path class="cls-1" d="M94.16,0h17.76v13.44h-17.76V0ZM95.28,24h15.52v80h-15.52V24Z"/>
      <path class="cls-1" d="M165.84,71.36l-13.6-1.6c-8.53-1.28-14.99-3.73-19.36-7.36-4.38-3.62-6.56-8.96-6.56-16,0-7.46,2.91-13.38,8.72-17.76,5.81-4.37,13.79-6.56,23.92-6.56s17.57,2.29,23.6,6.88c6.02,4.59,9.46,10.88,10.32,18.88h-15.2c-1.71-9.17-7.95-13.76-18.72-13.76-5.23,0-9.39,1.04-12.48,3.12-3.1,2.08-4.64,4.83-4.64,8.24s1.09,5.87,3.28,7.36c2.19,1.5,5.46,2.56,9.84,3.2l14.08,1.6c8.85,1.07,15.36,3.6,19.52,7.6,4.16,4,6.24,9.73,6.24,17.2,0,7.04-2.94,12.67-8.8,16.88-5.87,4.22-13.66,6.32-23.36,6.32-10.88,0-19.55-2.29-26-6.88-6.46-4.59-10.16-10.77-11.12-18.56h16.16c1.6,9.07,8.53,13.6,20.8,13.6,5.23,0,9.41-.98,12.56-2.96,3.15-1.97,4.72-4.61,4.72-7.92,0-6.61-4.64-10.45-13.92-11.52Z"/>
      <path class="cls-1" d="M205.92,63.68c0-8.53,1.54-15.87,4.64-22,3.09-6.13,7.49-10.88,13.2-14.24,5.71-3.36,12.45-5.04,20.24-5.04s14.1,1.73,19.92,5.2c5.81,3.47,10.4,8.24,13.76,14.32,3.36,6.08,5.04,13.07,5.04,20.96v4.96h-60.64c1.06,16.32,8.74,24.48,23.04,24.48,5.65,0,10.19-1.28,13.6-3.84,3.41-2.56,5.6-6.02,6.56-10.4h16.48c-3.42,18.13-15.68,27.2-36.8,27.2-8,0-14.91-1.68-20.72-5.04-5.81-3.36-10.32-8.16-13.52-14.4-3.2-6.24-4.8-13.62-4.8-22.16ZM244.16,34.72c-12.8,0-20.11,7.25-21.92,21.76h43.84c-.64-6.61-2.94-11.89-6.88-15.84-3.95-3.95-8.96-5.92-15.04-5.92Z"/>
      <path class="cls-1" d="M297.44,24h15.52v12.48c2.56-4.48,5.84-7.94,9.84-10.4,4-2.45,8.03-3.68,12.08-3.68h4.32v16.16h-4.16c-6.19,0-11.42,1.79-15.68,5.36-4.27,3.58-6.4,8.19-6.4,13.84v46.24h-15.52V24Z"/>
      <path class="cls-1" d="M415.4,80.32c0,10.24.91,18.14,2.72,23.68h-15.84c-1.07-4.05-1.76-8.69-2.08-13.92-2.77,4.8-6.56,8.61-11.36,11.44s-10.19,4.24-16.16,4.24c-5.23,0-9.82-1.04-13.76-3.12-3.95-2.08-7.07-4.93-9.36-8.56-2.29-3.62-3.44-7.84-3.44-12.64,0-6.72,2.05-12.02,6.16-15.92,4.11-3.89,9.89-6.1,17.36-6.64l21.76-1.28c3.09-.21,5.3-.91,6.64-2.08,1.33-1.17,2-2.93,2-5.28v-.32c0-4.37-1.76-8.05-5.28-11.04-3.52-2.98-7.79-4.48-12.8-4.48-11.52,0-17.87,5.02-19.04,15.04h-16.16c.64-8.32,4.13-14.96,10.48-19.92,6.35-4.96,14.58-7.44,24.72-7.44,6.5,0,12.26,1.25,17.28,3.76,5.01,2.51,8.96,5.98,11.84,10.4,2.88,4.43,4.32,9.52,4.32,15.28v28.8ZM361.96,80.32c0,3.84,1.44,6.85,4.32,9.04,2.88,2.19,6.72,3.28,11.52,3.28,4.26,0,8.05-.96,11.36-2.88,3.31-1.92,5.95-4.56,7.92-7.92,1.97-3.36,2.96-7.17,2.96-11.44v-2.56l-24.8,1.44c-8.85.64-13.28,4.32-13.28,11.04Z"/>
    </g>
  </g>
</svg>